<svg width="258" height="258" viewBox="0 0 258 258" fill="none" xmlns="http://www.w3.org/2000/svg">
<path d="M14.2251 0.00419998C6.3681 0.00419998 0.000100136 6.3714 0.000100136 14.2282L0 243.498C0 251.348 6.3671 257.718 14.225 257.718H177.825L177.805 257.708H137.655V157.908H104.075V119.008H137.655V90.3262C137.655 57.0392 157.995 38.9142 187.685 38.9142C201.905 38.9142 214.135 39.9712 217.695 40.4452V75.2322L197.105 75.2422C180.955 75.2422 177.825 82.9162 177.825 94.1782V119.018H216.345L211.325 157.918H177.825V257.718H243.495C251.345 257.718 257.715 251.348 257.715 243.498V14.2182C257.715 6.3652 251.355 0.000199795 243.495 0.000199795L14.225 0L14.2251 0.00419998Z" fill="#160B5D"/>
</svg>
